<svg version="1.1" xmlns="http://www.w3.org/2000/svg" viewBox="-749.2 1206.5 3401.3 1377.3">
<rect x="-749.2" y="1206.5" width="3401.3" height="1377.3" fill="#202124" />
<polyline points="247.5 1261.1,241.2 1262.0,232.1 1265.6,228.4 1268.4,225.7 1272.0,223.0 1276.5,220.2 1282.9,217.5 1288.4,215.7 1293.8,214.8 1301.1,214.8 1305.6,217.5 1320.2,220.2 1325.6,224.8 1332.0,229.3 1335.6,234.8 1340.2,239.3 1342.9,246.6 1345.6,253.9 1347.5,260.2 1347.5,278.4 1345.6,283.9 1344.7,288.4 1342.0,292.1 1338.4,294.8 1333.8,297.5 1330.2,298.4 1323.8,300.2 1317.5,301.2 1312.0,301.2 1303.8,300.2 1273.8,300.2 1266.5,298.4 1259.3,297.5 1252.0,295.7 1247.5,294.8 1242.0,293.9 1239.3,293.9 1242.0,295.7 1246.5,297.5 1252.0,300.2 1257.5,303.0 1264.7,305.7 1270.2,309.3 1280.2,311.2 1286.5,316.6 1302.9,317.5 1310.2,319.3 1315.6,320.2 1321.1,320.2 1325.6,322.1 1330.2,322.1 1333.8,323.9 1332.0,323.9 1328.4,326.6 1322.0,329.3 1318.4,330.2 1312.9,333.0 1307.5,335.7 1302.9,337.5 1299.3,342.1 1291.1,343.9 1288.4,346.6 1288.4,347.5 1290.2,349.3 1292.0,350.2 1294.7,351.2 1298.4,353.9 1305.6,354.8 1310.2,355.7 1313.8,358.4 1317.5,359.3 1319.3,360.2 1322.9,361.2 1324.7,363.0 1329.3,364.8 1331.1,366.6 1332.0,370.2 1331.1,372.1 1329.3,377.5 1321.1,380.2 1316.5,382.1 1312.9,384.8 1303.8,385.7 1301.1,387.5 1297.5,387.5 1294.7,386.6 1289.3,384.8 1292.0,383.0 1293.8,383.0 1298.4,384.8 1327.5,386.6 1332.9,389.3 1337.5,393.0 1344.7,397.5 1347.5,401.2 1349.3,404.8 1350.2,408.4 1350.2,415.7 1349.3,420.2 1346.5,425.7 1342.0,428.4 1337.5,431.2 1332.0,435.7 1320.2,435.7 1312.9,436.6 1304.7,436.6 1298.4,435.7 1286.5,433.9 1282.9,433.0 1280.2,431.2 1276.5" style="fill:none;stroke:#ffffff;stroke-width:2"/>
<polyline points="151.2 1458.4,156.6 1459.3,159.3 1459.3,161.2 1460.2,163.9 1461.1,167.5 1462.9" style="fill:none;stroke:#ffffff;stroke-width:2"/>
<polyline points="149.3 1496.5,153.0 1494.7,154.8 1493.8,161.2 1492.0,163.0 1492.0" style="fill:none;stroke:#ffffff;stroke-width:2"/>
<polyline points="168.4 1516.5,164.8 1521.1,163.0 1523.8,162.1 1524.7,161.2 1526.5,160.2 1527.5,159.3 1528.4" style="fill:none;stroke:#ffffff;stroke-width:2"/>
<polyline points="202.1 1473.8,202.1 1490.2,203.0 1500.2,203.9 1496.5,204.8 1494.7,204.8 1491.1,205.7 1487.5,207.5 1484.7,208.4 1482.0,209.3 1478.4,211.2 1476.5,214.8 1473.8,217.5 1472.0,221.2 1472.0,223.0 1472.9,223.9 1474.7,224.8 1477.5,225.7 1482.0,225.7 1484.7,224.8 1498.4,224.8 1501.1,223.9 1502.9,223.9 1505.6,223.0 1506.5" style="fill:none;stroke:#ffffff;stroke-width:2"/>
<polyline points="233.9 1501.1,237.5 1501.1,240.2 1499.3,244.8 1499.3,247.5 1498.4,251.2 1498.4,253.0 1497.5,256.6 1496.5,258.4 1494.7,261.2 1493.8,262.1 1491.1,262.1 1486.5,260.2 1483.8,258.4 1482.0,255.7 1480.2,251.2 1479.3,248.4 1479.3,246.6 1480.2,243.9 1482.0,240.2 1483.8,237.5 1486.5,234.8 1490.2,233.9 1493.8,231.2 1495.6,230.2 1499.3,230.2 1502.0,232.1 1512.0,233.9 1512.9,238.4 1514.7,241.2 1515.6,245.7 1515.6,251.2 1514.7,253.9 1513.8,255.7 1512.9,258.4 1511.1,260.2 1508.4,262.1 1507.5,263.9 1504.7,264.8 1502.0,266.6 1499.3,268.4 1493.8,269.3 1492.0,269.3 1489.3,270.2 1486.5,270.2 1482.9,271.2 1491.1,271.2 1495.6,273.0 1501.1,273.0 1505.6,273.9 1511.1,275.7 1515.6,276.6 1519.3,277.5 1522.0,279.3 1523.8,283.0 1522.9,283.9 1521.1,284.8 1515.6,284.8 1512.9,285.7 1509.3,286.6 1502.9,288.4 1499.3,289.3 1495.6,289.3 1492.9,291.2 1495.6,292.1 1500.2,294.8 1503.8,295.7 1507.5,298.4 1511.1,299.3 1515.6,302.1 1519.3,304.8 1522.0,306.6 1522.9,310.2 1523.8,313.0 1522.0,315.7 1519.3,317.5 1515.6,317.5 1511.1,318.4 1507.5,318.4 1501.1,318.4 1478.4" style="fill:none;stroke:#ffffff;stroke-width:2"/>
<polyline points="390.2 1474.7,384.8 1472.9,382.1 1472.9,378.4 1473.8,373.9 1477.5,373.0 1480.2,372.1 1484.7,372.1 1487.5,373.0 1489.3,377.5 1496.5,381.2 1499.3,385.7 1502.9,389.3 1505.6,394.8 1509.3,398.4 1511.1,402.1 1513.8,403.0 1516.5,399.3 1517.5,394.8 1517.5,385.7 1516.5,383.0 1516.5,381.2 1515.6,378.4 1515.6,376.6 1514.7,374.8 1514.7" style="fill:none;stroke:#ffffff;stroke-width:2"/>
<polyline points="432.1 1479.3,429.3 1480.2,427.5 1482.9,425.7 1484.7,424.8 1488.4,423.0 1492.9,422.1 1496.5,421.2 1499.3,420.2 1504.7,420.2 1507.5,421.2 1512.0,423.0 1513.8,425.7 1514.7,429.3 1513.8,432.1 1512.9,433.9 1510.2,435.7 1508.4,441.2 1503.8,442.1 1500.2,443.0 1498.4,444.8 1492.9,444.8 1490.2,443.9 1486.5,443.0 1488.4,443.0 1491.1,444.8 1507.5,444.8 1512.0,445.7 1517.5,445.7 1522.0,446.6 1525.6,446.6 1528.4,448.4 1532.0,448.4 1534.7,447.5 1541.1,445.7 1542.9,443.9 1543.8,441.2 1544.7,437.5 1544.7,429.3 1543.8,427.5 1542.9,426.6 1540.2,426.6 1536.5,429.3 1534.7,431.2 1533.8,434.8 1532.9,437.5 1531.1,441.2 1530.2,445.7 1529.3,449.3 1528.4,453.9 1526.5,459.3 1525.6,462.1 1524.7,463.9 1523.8,465.7 1522.0,467.5 1522.0" style="fill:none;stroke:#ffffff;stroke-width:2"/>
<polyline points="477.5 1457.5,480.2 1456.5,482.1 1455.6,487.5 1452.9,488.4 1452.0,489.3 1451.1,490.2 1450.2" style="fill:none;stroke:#ffffff;stroke-width:2"/>
<polyline points="478.4 1480.2,490.2 1478.4,499.3 1479.3,503.9 1480.2,504.8 1481.1" style="fill:none;stroke:#ffffff;stroke-width:2"/>
<polyline points="475.7 1506.5,477.5 1507.5,489.3 1512.9,493.0 1514.7,496.6 1517.5,498.4 1518.4,500.2 1520.2,503.9 1522.0" style="fill:none;stroke:#ffffff;stroke-width:2"/>
<polyline points="635.7 1472.9,644.8 1472.0,650.2 1472.0,669.3 1470.2,676.6 1470.2,695.7 1469.3,706.6 1469.3,715.7 1467.5,725.7 1467.5,739.3 1465.6,749.3 1465.6,760.2 1463.8,769.3 1463.8,786.6 1462.0,795.7 1462.0,806.6 1461.1,811.2 1461.1,822.1 1460.2,824.8 1460.2,829.3 1459.3,833.0 1459.3,849.3 1460.2,853.0 1460.2,855.7 1461.1,860.2 1462.0,863.0 1462.9,866.6 1462.9,870.2 1463.8,869.3 1461.1,866.6 1459.3,863.9 1456.5,860.2 1453.8,858.4 1452.9,855.7 1451.1,853.9 1450.2,851.2 1449.3,849.3 1448.4,851.2 1449.3,861.2 1453.8,863.9 1454.7,865.7 1456.5,868.4 1457.5,870.2 1458.4,873.0 1458.4,874.8 1459.3,878.4 1460.2,874.8 1462.9,873.0 1463.8,865.7 1468.4,860.2 1471.1,856.6 1473.8,851.2 1476.5,846.6 1480.2,841.2 1482.9,838.4 1485.6,835.7 1486.5,834.8 1488.4,832.1 1489.3" style="fill:none;stroke:#ffffff;stroke-width:2"/>
<polyline points="922.1 1340.2,922.1 1337.5,923.0 1323.8,923.0 1321.1,923.9 1312.0,923.9 1308.4,925.7 1305.6,926.6 1302.9,928.4 1302.0,932.1 1301.1,934.8 1301.1,938.4 1300.2,941.2 1300.2,943.9 1301.1,945.7 1302.9,949.3 1303.8,953.0 1305.6,955.7 1308.4,959.3 1311.1,962.1 1314.7,964.8 1319.3,967.5 1322.9,968.4 1327.5,969.3 1332.9,972.1 1337.5,973.9 1344.7,975.7 1349.3,975.7 1353.8,976.6 1357.5,976.6 1360.2,977.5 1363.8,978.4 1361.1" style="fill:none;stroke:#ffffff;stroke-width:2"/>
<polyline points="1004.8 1324.7,993.9 1325.6,993.0 1327.5,990.2 1329.3,989.3 1332.0,985.7 1341.1,985.7 1345.6,987.5 1355.6,988.4 1357.5,991.2 1361.1,993.0 1364.7,997.5 1365.6,999.3 1368.4,1003.0 1369.3,1006.6 1369.3,1021.2 1366.5,1024.8 1363.8,1029.3 1361.1,1031.2 1357.5,1033.9 1350.2,1034.8 1345.6,1034.8 1342.9,1033.0 1335.6,1030.2 1332.0,1027.5 1327.5,1021.2 1324.7,1015.7 1322.0,1009.3 1319.3,1003.0 1317.5,997.5 1316.5,993.0 1316.5,984.8 1319.3,983.0 1320.2,982.1 1322.0,982.1 1325.6,982.1 1330.2" style="fill:none;stroke:#ffffff;stroke-width:2"/>
<polyline points="1040.2 1272.9,1040.2 1275.6,1042.1 1281.1,1043.0 1285.6,1044.8 1291.1,1045.7 1297.5,1047.5 1304.7,1048.4 1310.2,1050.2 1316.5,1052.1 1323.8,1053.0 1331.1,1054.8 1338.4,1055.7 1342.9,1057.5 1348.4,1058.4 1352.9,1059.3 1356.5,1059.3 1360.2,1060.2 1362.9,1060.2 1364.7" style="fill:none;stroke:#ffffff;stroke-width:2"/>
<polyline points="1025.7 1306.5,1028.4 1306.5,1066.6 1306.5,1069.3 1306.5,1071.2 1306.5,1073.9 1306.5,1074.8 1307.5" style="fill:none;stroke:#ffffff;stroke-width:2"/>
<polyline points="1095.7 1347.5,1099.3 1346.5,1104.8 1344.7,1107.5 1342.0,1110.2 1338.4,1111.2 1336.5,1111.2 1332.9,1110.2 1327.5,1108.4 1324.7,1105.7 1323.8,1103.9 1322.9,1100.2 1322.0,1095.7 1322.0,1087.5 1323.8,1083.9 1326.5,1081.2 1329.3,1077.5 1333.8,1074.8 1337.5,1072.1 1343.8,1071.2 1348.4,1071.2 1352.0,1072.1 1359.3,1074.8 1362.0,1076.6 1365.6,1081.2 1368.4,1083.9 1369.3,1089.3 1370.2,1093.9 1371.1,1098.4 1371.1,1110.2 1370.2,1115.7 1367.5,1121.2 1362.9,1127.5 1360.2,1131.2 1356.5,1135.7 1350.2,1138.4 1344.7,1143.0 1332.0,1144.8 1324.7,1144.8 1320.2,1143.9 1302.9,1141.2 1299.3,1139.3 1293.8,1136.6 1289.3,1134.8 1285.6,1132.1 1282.9,1129.3 1281.1,1127.5 1279.3,1127.5 1282.9,1129.3 1296.5,1129.3 1303.8,1130.2 1310.2,1132.1 1317.5,1133.0 1324.7,1134.8 1331.1,1136.6 1338.4,1139.3 1345.6,1141.2 1349.3,1143.0 1354.7,1146.6 1362.9,1147.5 1364.7,1148.4 1367.5,1150.2 1368.4,1153.0 1365.6,1153.0 1362.0,1153.0 1360.2" style="fill:none;stroke:#ffffff;stroke-width:2"/>
<polyline points="1163.0 1317.5,1166.6 1316.5,1168.4 1313.8,1171.2 1308.4,1173.9 1303.8,1173.9 1300.2,1173.0 1286.5,1172.1 1284.7,1170.2 1283.8,1166.6 1283.8,1164.8 1287.5,1163.0 1289.3,1162.1 1292.0,1161.2 1295.6,1160.2 1302.0,1158.4 1309.3,1156.6 1315.6,1155.7 1322.9,1155.7 1332.0,1157.5 1363.8,1158.4 1370.2,1161.2 1373.8,1162.1 1378.4,1164.8 1382.0,1166.6 1384.7,1167.5 1383.8" style="fill:none;stroke:#ffffff;stroke-width:2"/>
<polyline points="1193.9 1346.5,1192.1 1347.5,1191.2 1351.1,1189.3 1352.9,1189.3 1362.9,1191.2 1370.2,1192.1 1372.0,1193.9 1372.9,1199.3 1374.7,1202.1 1374.7,1203.9 1373.8,1207.5 1372.9,1209.3 1370.2,1213.9 1366.5,1214.8 1363.8,1216.6 1361.1,1217.5 1357.5,1219.3 1354.7,1220.2 1352.9,1220.2 1349.3,1218.4 1351.1,1218.4 1354.7,1219.3 1363.8,1220.2 1365.6,1223.0 1368.4,1228.4 1372.0,1230.2 1372.0" style="fill:none;stroke:#ffffff;stroke-width:2"/>
<polyline points="1115.9 1475.2,1120.7 1475.2,1124.8 1475.9,1130.9 1475.9,1146.0 1477.3,1154.2 1477.3,1162.4 1478.7,1172.6 1478.7,1198.6 1480.0,1212.2 1480.0,1314.7 1480.0,1419.9 1480.0,1520.3 1478.7,1518.2 1478.0,1516.2 1476.6,1514.1 1475.9,1512.1 1474.6,1509.3 1473.9,1504.5 1471.8,1501.1 1471.1,1497.7 1469.8,1495.0 1468.4,1492.3 1467.7,1490.2 1467.0,1487.5 1465.0,1485.4 1464.3,1486.8 1466.4,1489.5 1468.4,1492.3 1469.8,1495.7 1471.8,1498.4 1473.9,1502.5 1475.9,1505.9 1478.0,1510.0 1479.3,1514.1 1482.1,1518.2 1483.4,1527.1 1486.8,1523.7 1487.5,1520.3 1487.5,1518.2 1488.9,1515.5 1488.9,1511.4 1489.6,1507.3 1491.6,1501.8 1493.7,1499.1 1494.4,1495.0 1496.4,1492.9 1497.8,1492.3 1498.5" style="fill:none;stroke:#ffffff;stroke-width:2"/>
<polyline points="1594.0 1319.5,1593.3 1322.2,1592.7 1325.7,1592.7 1329.1,1591.3 1333.2,1589.9 1337.9,1589.2 1343.4,1589.2 1348.2,1587.9 1353.7,1587.9 1358.4,1588.6 1378.2,1589.2 1374.8,1590.6 1372.1,1591.3 1368.7,1592.0 1364.6,1593.3 1359.1,1596.8 1342.0,1598.1 1329.8,1599.5 1323.6,1600.2 1316.8,1600.2 1312.0,1601.5 1305.2,1601.5 1301.7,1602.2 1296.3,1604.3 1299.0,1605.6 1301.7,1607.0 1305.8,1609.0 1309.9,1612.5 1315.4,1614.5 1320.9,1617.9 1325.7,1621.3 1331.1,1624.8 1338.6,1628.2 1344.8,1631.6 1348.9,1636.4 1353.7,1639.1 1357.1,1642.5 1359.8,1644.6 1361.9,1646.6 1362.5,1648.7 1363.9,1650.7 1361.9,1650.7 1359.8,1652.1 1357.1,1652.1 1353.7,1652.8 1348.9,1652.8 1344.1,1654.1 1333.9,1654.1 1329.1,1654.8 1325.0,1656.2 1320.2,1657.5 1316.1,1657.5 1312.7,1658.2 1309.9,1659.6 1305.2,1660.3 1304.5" style="fill:none;stroke:#ffffff;stroke-width:2"/>
<polyline points="1677.4 1362.5,1677.4 1360.5,1678.7 1344.1,1679.4 1340.7,1680.8 1335.2,1681.4 1329.8,1683.5 1325.7,1684.9 1318.8,1686.9 1314.7,1688.3 1309.3,1690.3 1305.8,1691.0 1303.1,1691.7 1299.7,1694.4 1297.0,1697.2 1303.1,1699.2 1307.2,1704.0 1320.2,1707.4 1324.3,1710.1 1331.8,1713.6 1337.9,1718.3 1343.4,1723.1 1349.6,1726.5 1354.3,1731.3 1359.1,1734.7 1363.9,1738.1 1366.6,1740.2 1368.7,1741.6 1370.7,1739.5 1370.7,1736.8 1369.4,1733.4 1368.0,1729.3 1366.6" style="fill:none;stroke:#ffffff;stroke-width:2"/>
<polyline points="1682.8 1348.9,1686.9 1347.5,1692.4 1346.1,1697.2 1344.8,1701.3 1343.4,1706.7 1342.7,1712.2 1340.7,1717.6 1339.3,1723.1 1338.6,1727.9 1336.6,1733.4 1335.2,1737.5 1334.5,1740.2 1332.5,1742.9 1331.8,1745.0 1331.1,1746.3 1330.4" style="fill:none;stroke:#ffffff;stroke-width:2"/>
<polyline points="1735.4 1299.7,1737.5 1299.7,1773.7 1299.0,1779.1 1297.7,1786.6 1296.3,1791.4 1295.6,1796.9 1294.2,1802.3 1294.2,1805.8 1293.6,1808.5 1292.2" style="fill:none;stroke:#ffffff;stroke-width:2"/>
<polyline points="1786.6 1314.0,1786.6 1323.6,1787.3 1342.7,1787.3 1344.1" style="fill:none;stroke:#ffffff;stroke-width:2"/>
<polyline points="1778.4 1300.4,1778.4 1316.8,1779.8 1341.4,1779.8 1346.8,1781.2 1352.3,1781.9 1357.1,1781.9 1360.5,1783.2 1363.9,1783.9 1366.0" style="fill:none;stroke:#ffffff;stroke-width:2"/>
<polyline points="1858.3 1300.4,1854.9 1299.0,1850.8 1297.7,1846.7 1297.0,1844.0 1295.6,1842.0 1295.6,1833.8 1297.7,1831.7 1298.3,1828.3 1301.7,1826.9 1303.8,1824.9 1306.5,1824.2 1309.3,1824.2 1312.7,1823.5 1315.4,1823.5 1317.5,1824.2 1320.2,1826.2 1322.9,1829.0 1325.0,1833.1 1327.7,1837.9 1330.4,1843.3 1332.5,1850.2 1334.5,1854.3 1336.6,1861.1 1337.9,1867.2 1338.6,1872.0 1340.0,1874.7 1341.4,1877.5 1342.0,1880.9 1344.1,1878.8 1348.2,1876.8 1348.9,1874.7 1350.2,1870.6 1352.3,1867.2 1354.3,1863.8 1355.7,1859.7 1357.1,1857.0 1359.1,1850.8 1361.9,1848.8 1363.9,1846.1 1364.6,1843.3 1366.0,1838.5 1367.3,1835.8 1368.0,1833.1 1368.0" style="fill:none;stroke:#ffffff;stroke-width:2"/>
<polyline points="188.1 1603.8,175.7 1602.5,171.3 1603.2,166.3 1606.9,164.5 1609.4,163.9 1611.9,162.6 1617.4,162.6 1619.9,163.2 1623.6,166.3 1626.8,170.1 1627.4,175.0 1627.4,178.1 1626.8,181.2 1624.9,186.2 1621.2,188.7 1618.7,192.4 1614.3,193.0 1611.9,193.7 1607.5,193.7 1605.0,192.4 1603.2,190.6 1606.3,189.9 1610.0,189.9 1613.7,190.6 1626.1,193.0 1629.9,195.5 1632.3,198.6 1633.0,201.7 1633.0,204.2 1630.5,204.8 1627.4" style="fill:none;stroke:#ffffff;stroke-width:2"/>
<polyline points="216.0 1582.0,214.8 1591.4,214.8 1595.7,214.8 1621.2,214.8 1623.0,215.4 1624.3" style="fill:none;stroke:#ffffff;stroke-width:2"/>
<polyline points="201.7 1593.2,209.2 1593.8,216.0 1595.1,219.1 1595.1,226.0 1595.1" style="fill:none;stroke:#ffffff;stroke-width:2"/>
<polyline points="297.4 1549.1,297.4 1563.4,296.1 1585.8,296.1 1591.4,296.7 1616.2,298.6 1618.1,299.2 1621.2,301.1 1623.0,306.7 1628.0,309.2 1628.6,311.6 1628.6,313.5 1626.1,314.1 1623.6" style="fill:none;stroke:#5784ff;stroke-width:2"/>
<polyline points="280.6 1589.5,283.1 1589.5,287.4 1590.7,292.4 1591.4,296.7 1591.4,316.0 1591.4,317.2 1591.4" style="fill:none;stroke:#5784ff;stroke-width:2"/>
<polyline points="872.7 1704.2,874.7 1704.2,876.7 1703.2" style="fill:none;stroke:#ffffff;stroke-width:2"/>
<polyline points="907.7 1703.2,909.7 1703.2,911.7 1703.2,913.7 1703.2" style="fill:none;stroke:#ffffff;stroke-width:2"/>
<polyline points="945.7 1703.2,947.7 1703.2,949.7 1703.2,951.7 1703.2" style="fill:none;stroke:#ffffff;stroke-width:2"/>
<polyline points="977.7 1703.2,980.7 1703.2,982.7 1703.2,984.7 1703.2,986.7 1703.2,988.7 1703.2" style="fill:none;stroke:#ffffff;stroke-width:2"/>
<polyline points="1007.7 1705.2,1009.7 1705.2,1011.7 1705.2,1013.7 1705.2,1015.7 1705.2,1017.7 1705.2,1019.7 1705.2" style="fill:none;stroke:#ffffff;stroke-width:2"/>
<polyline points="1041.7 1706.2,1043.7 1707.2,1045.7 1707.2,1047.7 1707.2,1049.7 1707.2,1051.7 1707.2" style="fill:none;stroke:#ffffff;stroke-width:2"/>
<polyline points="1074.7 1709.2,1089.7 1710.2,1091.7 1710.2" style="fill:none;stroke:#ffffff;stroke-width:2"/>
<polyline points="1118.7 1711.2,1120.7 1711.2,1122.7 1711.2,1124.7 1711.2,1126.7 1711.2,1128.7 1711.2" style="fill:none;stroke:#ffffff;stroke-width:2"/>
<polyline points="1146.7 1712.2,1148.7 1712.2,1150.7 1712.2,1153.7 1712.2,1156.7 1712.2" style="fill:none;stroke:#ffffff;stroke-width:2"/>
<polyline points="1187.7 1711.2,1189.7 1711.2,1191.7 1711.2,1193.7 1711.2,1195.7 1711.2,1197.7 1711.2,1199.7 1711.2" style="fill:none;stroke:#ffffff;stroke-width:2"/>
<polyline points="1219.7 1712.2,1221.7 1712.2,1223.7 1712.2,1225.7 1714.2,1227.7 1714.2,1229.7 1714.2,1231.7 1714.2" style="fill:none;stroke:#ffffff;stroke-width:2"/>
<polyline points="1256.7 1712.2,1258.7 1712.2,1260.7 1712.2,1262.7 1712.2,1264.7 1712.2" style="fill:none;stroke:#ffffff;stroke-width:2"/>
<polyline points="1278.7 1711.2,1278.7 1712.7,1278.0 1712.0" style="fill:none;stroke:#ffffff;stroke-width:2"/>
<polyline points="1396.7 1671.2,1397.7 1682.2,1397.7 1687.2,1399.7 1693.2,1399.7 1696.2,1400.7 1699.2,1400.7 1703.2,1401.7 1707.2,1403.7 1716.2,1405.7 1718.2,1406.7 1722.2,1407.7 1725.2,1409.7 1728.2,1411.7 1730.2,1414.7 1731.2,1417.7 1733.2,1420.7 1734.2,1424.7 1734.2,1425.7 1731.2,1426.7 1726.2,1426.7 1724.2" style="fill:none;stroke:#5784ff;stroke-width:2"/>
<polyline points="1401.7 1700.2,1413.7 1698.2,1415.7 1698.2,1417.7 1698.2" style="fill:none;stroke:#5784ff;stroke-width:2"/>
<polyline points="1173.7 1886.2,1186.7 1888.2,1190.7 1888.2,1199.7 1889.2,1205.7 1889.2,1212.7 1890.2,1219.7 1890.2,1248.7 1892.2,1260.7 1892.2,1283.7 1894.2,1300.7 1894.2,1331.7 1896.2,1348.7 1896.2,1400.7 1898.2,1417.7 1898.2,1504.7 1900.2,1517.7 1900.2,1617.7 1901.2,1632.7 1902.2,1630.7 1902.2" style="fill:none;stroke:#ffffff;stroke-width:2"/>
<polyline points="1177.7 1891.2,1183.7 1896.2,1187.7 1897.2,1191.7 1900.2,1195.7 1902.2,1199.7 1905.2,1205.7 1907.2,1208.7 1909.2,1213.7 1911.2,1215.7 1913.2,1219.7 1915.2,1222.7 1916.2" style="fill:none;stroke:#ffffff;stroke-width:2"/>
<polyline points="1167.7 1881.2,1174.7 1875.2,1175.7 1873.2,1178.7 1872.2,1180.7 1869.2,1183.7 1867.2,1185.7 1864.2,1188.7 1863.2,1190.7 1861.2,1194.7 1858.2,1195.7 1856.2,1198.7 1854.2,1201.7 1853.2" style="fill:none;stroke:#ffffff;stroke-width:2"/>
<polyline points="1282.9 1826.1,1277.2 1828.2,1275.1 1835.9,1274.8 1840.1,1275.8 1846.4,1276.9 1848.2,1277.9 1850.3,1279.4 1852.0,1281.5 1853.4,1283.9 1855.2,1286.0 1856.2,1288.1 1856.9,1290.6 1857.6,1293.7 1858.3,1296.2 1858.7,1298.6 1858.7,1300.0 1858.7" style="fill:none;stroke:#ffffff;stroke-width:2"/>
<polyline points="1328.1 1834.9,1312.6 1842.2,1311.6 1844.3,1311.2 1846.4,1311.2 1848.5,1311.6 1854.8,1313.0 1856.6,1314.8 1859.0,1316.9 1860.4,1320.0 1862.9,1322.8 1864.0,1326.3 1865.0,1329.8 1865.7,1333.3 1866.1,1336.8 1866.1,1344.2 1865.7,1347.7 1864.3,1350.5 1864.0,1353.0 1861.8,1354.7 1860.4,1356.1 1858.3,1356.8 1856.2,1357.2 1854.1,1357.2 1849.9,1356.1 1847.5,1354.7 1845.4,1352.6 1842.6,1349.8 1839.4,1347.3 1837.7,1344.2 1835.2,1341.0 1833.5,1337.2 1831.7,1333.0 1830.3,1329.5 1828.9,1326.0 1828.2,1322.5 1827.9,1320.0 1827.9,1316.2 1828.2" style="fill:none;stroke:#ffffff;stroke-width:2"/>
<polyline points="1372.2 1863.6,1371.9 1855.9,1372.9 1847.1,1374.0 1844.7,1375.0 1840.1,1376.4 1837.3,1377.5 1835.6,1379.2 1833.5,1381.7 1832.4,1384.5 1832.1,1386.6 1832.1,1388.4 1833.1,1391.9 1834.9,1394.0 1836.6,1396.4 1839.1,1399.6 1842.6,1402.0 1845.7,1403.8 1848.9,1404.8 1851.7,1407.3 1856.6,1407.6 1860.1,1408.3 1862.9,1408.3 1865.4,1408.0 1872.0,1407.3 1872.4" style="fill:none;stroke:#ffffff;stroke-width:2"/>
<polyline points="1433.6 1837.0,1427.3 1837.7,1429.0 1843.3,1431.1 1845.0,1433.2 1846.4,1436.4 1848.2,1438.5 1849.9,1441.3 1851.7,1443.7 1853.4,1446.9 1855.5,1449.3 1856.9,1451.4 1859.0,1453.2 1860.4,1454.6 1862.5,1454.6 1864.7,1452.5 1866.1,1450.4 1866.4,1447.2 1867.5,1444.8 1867.5,1426.6 1866.8,1424.5 1866.4,1422.0 1866.1,1420.3 1864.7,1419.9 1864.3" style="fill:none;stroke:#ffffff;stroke-width:2"/>
<polyline points="1426.7 1838.8,1434.0 1832.9,1436.1 1832.5,1437.9 1831.5,1442.4 1829.7,1445.2 1829.7,1448.1 1829.4,1451.2 1829.4,1457.9 1830.1,1461.7 1831.1,1465.2 1832.5,1468.0 1833.6,1470.8 1835.0,1472.6 1836.4,1474.3 1837.4,1475.7 1839.2,1476.8 1840.9,1475.7 1842.3" style="fill:none;stroke:#ffffff;stroke-width:2"/>
<polyline points="1487.0 1830.8,1484.5 1834.3,1482.1 1842.3,1482.4 1851.5,1483.5 1853.2,1484.5 1855.7,1486.3 1857.8,1489.4 1860.9,1492.9 1862.7,1496.1 1863.7,1498.5 1863.7,1502.0 1862.3,1504.1 1860.9,1505.9 1858.8,1507.6 1857.1,1509.4 1854.6,1510.4 1852.5,1510.8 1850.4,1511.8 1848.3,1512.9 1845.1,1513.2 1842.7,1513.2 1840.2,1512.9 1837.4" style="fill:none;stroke:#ffffff;stroke-width:2"/>
<polyline points="1525.2 1859.2,1526.9 1852.2,1527.3 1849.7,1528.3 1847.6,1528.7 1844.8,1529.4 1842.0,1529.7 1839.5,1530.4 1837.4,1531.5 1835.3,1531.8 1833.2,1532.9 1831.5,1534.3 1829.7,1537.1 1832.5,1538.1 1834.3,1539.5 1838.1,1540.6 1841.3,1541.3 1845.8,1542.7 1849.4,1543.0 1853.6,1543.7 1857.1,1544.4 1859.9,1544.4 1862.0,1544.8 1859.2,1544.8 1856.7,1545.5 1853.9,1545.5 1851.5,1546.2 1848.7,1546.5 1845.8,1547.2 1843.7,1548.3 1842.0,1550.0 1840.9,1551.8 1842.7,1554.6 1846.5,1555.7 1849.4,1557.4 1851.5,1558.5 1854.6,1559.9 1858.1,1560.9 1860.2,1561.6 1862.3,1562.7 1865.8,1564.8 1864.1,1565.8 1862.3,1566.9 1860.2,1567.9 1857.1,1569.3 1853.6,1570.4 1850.8,1571.8 1847.6,1572.8 1844.8,1573.9 1842.3,1575.6 1839.9,1577.4 1837.8,1579.5 1838.1,1580.5 1841.3,1580.9 1843.4,1581.9 1845.5,1582.6 1849.0,1583.3 1851.8,1583.7 1853.9,1584.0 1856.7,1584.7 1858.8,1585.4 1861.6,1586.1 1863.7,1586.5 1864.1" style="fill:none;stroke:#ffffff;stroke-width:2"/>
<polyline points="1636.3 1839.2,1631.7 1833.9,1628.2 1831.8,1625.8 1831.1,1619.8 1831.1,1615.9 1832.9,1611.7 1835.3,1609.3 1837.8,1607.2 1841.3,1605.8 1845.1,1605.1 1847.2,1604.4 1849.7,1604.4 1852.2,1605.1 1858.5,1607.2 1863.0,1609.3 1865.8,1611.4 1866.9,1615.2 1868.3,1618.0 1869.0,1620.5 1869.0,1632.1 1867.9,1634.9 1867.2,1637.0 1866.2,1640.5 1864.8,1642.9 1862.7,1643.3 1860.6,1642.2 1859.9" style="fill:none;stroke:#ffffff;stroke-width:2"/>
<polyline points="1630.0 1836.7,1630.0 1841.6,1622.6 1846.9,1618.7 1848.3,1616.3 1849.0,1611.7 1850.1,1608.2 1850.8,1606.1 1851.1,1604.4 1851.5" style="fill:none;stroke:#ffffff;stroke-width:2"/>
<polyline points="525.0 1342.0,526.8 1338.4,530.4 1329.6,537.4 1315.4,539.2 1310.1,542.8 1304.8,544.5 1299.4,546.3 1295.9,546.3 1290.6,548.1 1287.0,548.1 1283.5,549.8 1281.7,549.8 1276.4,551.6 1278.2,551.6 1281.7,553.4 1283.5,556.9 1292.4,558.7 1299.4,560.5 1304.8,562.2 1311.8,569.3 1331.3,571.1 1336.6,571.1 1340.2,571.1 1343.7" style="fill:none;stroke:#ffffff;stroke-width:2"/>
<polyline points="525.0 1318.9,526.8 1317.2,530.4 1317.2,537.4 1315.4,542.8 1315.4,546.3 1313.6,549.8 1313.6,553.4 1313.6" style="fill:none;stroke:#ffffff;stroke-width:2"/>
<polyline points="576.4 1288.8,578.2 1294.1,578.2 1301.2,581.7 1317.2,581.7 1322.5,583.5 1327.8,583.5 1331.3,585.3 1334.9,585.3 1338.4,587.0 1342.0,587.0 1336.6,585.3 1313.6,585.3 1310.1,583.5 1304.8,583.5 1299.4,581.7 1294.1,581.7 1290.6,583.5 1278.2,585.3 1276.4,588.8 1276.4,597.7 1278.2,599.4 1281.7,599.4 1285.3,597.7 1287.0,594.1 1288.8,590.6 1292.4,585.3 1295.9,583.5 1297.7,580.0 1297.7,578.2 1299.4,574.6 1299.4,572.9 1301.2,569.3 1301.2" style="fill:none;stroke:#ffffff;stroke-width:2"/>
<polyline points="613.6 1283.5,618.9 1283.5,633.1 1287.0,642.0 1287.0,650.8 1288.8,656.1 1288.8,672.1 1288.8" style="fill:none;stroke:#ffffff;stroke-width:2"/>
<polyline points="643.7 1292.4,643.7 1295.9,643.7 1320.7,642.0 1324.2,640.2 1326.0" style="fill:none;stroke:#ffffff;stroke-width:2"/>
<polyline points="617.2 1336.6,620.7 1336.6,650.8 1338.4,656.1 1338.4,673.9 1338.4,677.4 1338.4" style="fill:none;stroke:#ffffff;stroke-width:2"/>
<polyline points="2224.0 1294.1,2206.3 1297.7,2202.7 1299.4,2197.4 1301.2,2193.8 1304.8,2192.1 1308.3,2186.8 1311.8,2185.0 1317.2,2183.2 1326.0,2179.7 1333.1,2179.7 1338.4,2183.2 1347.3,2185.0 1352.6,2188.5 1356.1,2192.1 1361.4,2195.6 1363.2,2200.9 1366.8,2206.3 1368.5,2209.8 1368.5,2213.3 1370.3,2220.4 1370.3,2232.8 1368.5,2238.1 1366.8,2239.9 1365.0,2241.7 1361.4,2243.5 1356.1,2245.2 1352.6,2247.0 1347.3,2248.8 1336.6,2248.8 1331.3,2247.0 1290.6,2247.0 1285.3,2245.2 1280.0,2245.2 1272.9,2243.5 1269.3,2243.5 1265.8,2241.7 1262.2,2241.7 1258.7,2239.9 1256.9,2239.9 1253.4,2238.1 1251.6,2238.1 1255.2,2239.9 1265.8,2239.9 1272.9,2241.7 1288.8,2241.7 1297.7,2245.2 1311.8,2245.2 1320.7,2247.0 1336.6,2247.0 1345.5,2250.5 1354.4,2250.5 1357.9,2252.3 1359.7,2252.3 1356.1,2254.1 1349.0,2254.1 1345.5,2255.9 1340.2,2257.6 1336.6,2259.4 1331.3,2261.2 1327.8,2264.7 1322.5,2266.5 1318.9,2268.3 1313.6,2270.0 1311.8,2273.6 1310.1,2277.1 1310.1,2282.4 1313.6,2284.2 1317.2,2286.0 1318.9,2286.0 1322.5,2287.7 1324.2,2287.7 1329.6,2291.3 1334.9,2291.3 1340.2,2293.1 1354.4,2293.1 1357.9,2294.8 1359.7,2298.4 1357.9,2300.1 1354.4,2301.9 1349.0,2303.7 1347.3,2305.5 1342.0,2305.5 1338.4,2307.2 1334.9,2307.2 1331.3,2305.5 1310.1,2305.5 1315.4,2307.2 1340.2,2309.0 1342.0,2309.0 1345.5,2310.8 1347.3,2316.1 1350.8,2319.6 1350.8,2330.3 1349.0,2333.8 1347.3,2335.6 1345.5,2337.3 1342.0,2339.1 1340.2,2340.9 1336.6,2340.9 1331.3,2342.7 1327.8,2342.7 1324.2,2342.7 1303.0" style="fill:none;stroke:#ffffff;stroke-width:2"/>
<polyline points="2418.8 1288.8,2418.8 1292.4,2420.6 1338.4,2420.6 1342.0,2422.4 1352.6,2420.6 1347.3,2418.8 1345.5,2418.8 1342.0,2417.1 1338.4,2417.1 1334.9,2415.3 1331.3,2413.5 1324.2,2410.0 1320.7,2408.2 1315.4,2408.2 1311.8,2406.4 1303.0,2406.4 1299.4,2404.7 1292.4,2404.7 1288.8,2406.4 1276.4,2408.2 1274.6,2411.8 1274.6,2425.9 1276.4,2431.2 1280.0,2438.3 1281.7,2445.4 1287.0,2452.5 1288.8,2457.8 1292.4,2463.1 1297.7,2470.2 1308.3,2470.2 1311.8,2468.4 1324.2,2464.9 1329.6,2461.4 1333.1,2450.7 1340.2,2447.2 1343.7,2438.3 1347.3,2434.8 1350.8,2427.7 1350.8,2422.4 1352.6,2413.5 1354.4,2408.2 1354.4,2401.1 1354.4" style="fill:none;stroke:#ffffff;stroke-width:2"/>
<polyline points="2486.2 1292.4,2486.2 1299.4,2487.9 1303.0,2487.9 1306.5,2489.7 1310.1,2489.7 1317.2,2493.2 1326.0,2493.2 1331.3,2495.0 1342.0,2495.0 1345.5,2493.2 1338.4,2493.2 1333.1,2491.5 1327.8,2487.9 1322.5,2487.9 1315.4,2491.5 1285.3,2493.2 1281.7,2496.8 1272.9,2500.3 1271.1,2505.6 1269.3,2511.0 1269.3,2518.0 1271.1,2530.4 1274.6,2534.0 1280.0,2541.1 1281.7,2542.8 1285.3,2546.4 1287.0,2548.2 1290.6,2548.2 1294.1,2546.4 1297.7,2539.3 1297.7,2507.4 1299.4,2507.4 1303.0,2511.0 1308.3,2516.3 1311.8,2523.4 1318.9,2530.4 1324.2,2539.3 1333.1,2549.9 1338.4,2558.8 1343.7,2564.1 1349.0,2569.4 1352.6,2571.2 1357.9,2571.2 1361.4,2567.6 1363.2,2562.3 1363.2,2555.2 1366.8,2544.6 1366.8,2484.4 1366.8" style="fill:none;stroke:#ffffff;stroke-width:2"/>
<polyline points="1218.2 2107.9,1222.6 2107.9,1415.8 2107.9,1547.6 2110.9,1582.8 2110.9,1677.9 2113.8,1711.6 2113.8,1837.5 2113.8,1938.5 2113.8,2042.5 2110.9,2063.0 2110.9,2168.4 2110.9,2191.8 2112.3,2202.1 2112.3,2307.5 2112.3,2319.2 2115.3,2330.9 2115.3,2399.7 2113.8,2407.0 2113.8,2430.5 2112.3,2427.5 2110.9,2424.6 2110.9,2423.1 2109.4,2420.2 2109.4,2414.4 2107.9,2411.4 2105.0,2408.5 2103.6,2402.7 2102.1,2398.3 2100.6,2393.9 2097.7,2389.5 2096.2,2386.5 2093.3,2377.8 2088.9,2373.4 2087.4,2370.4 2086.0,2369.0 2084.5,2364.6 2083.1,2363.1 2081.6,2364.6 2083.1,2369.0 2086.0,2371.9 2087.4,2376.3 2091.8,2379.2 2093.3,2383.6 2094.8,2388.0 2099.2,2396.8 2103.6,2404.1 2107.9,2410.0 2109.4,2417.3 2113.8,2420.2 2115.3,2426.1 2116.7,2430.5 2119.7,2433.4 2121.1,2434.9 2122.6,2433.4 2124.1,2429.0 2127.0,2426.1 2128.4,2421.7 2129.9,2411.4 2134.3,2404.1 2135.8,2398.3 2137.2,2390.9 2140.2,2385.1 2143.1,2376.3 2146.0,2370.4 2148.9" style="fill:none;stroke:#ffffff;stroke-width:2"/>
<polyline points="1373.1 2010.1,1370.8 2009.5,1365.8 2009.0,1356.7 2009.5,1352.2 2013.5,1351.7 2018.0,1352.8 2019.7,1353.9 2021.9,1357.3 2024.8,1360.7 2027.0,1365.8 2029.8,1369.7 2032.7,1374.8 2036.0,1379.9 2038.9,1383.3 2041.7,1386.7 2043.4,1388.9 2046.2,1391.2 2047.3,1391.7 2050.2,1392.3 2052.4,1391.2 2054.7,1388.9 2055.2,1386.7 2056.9,1383.8 2057.5,1381.0 2058.6,1376.5 2058.6,1362.9 2058.1,1361.2 2056.4,1361.2 2054.1,1361.8 2053.0" style="fill:none;stroke:#ffffff;stroke-width:2"/>
<polyline points="1399.1 2005.6,1399.6 2007.8,1399.6 2010.1,1400.2 2012.9,1400.2 2015.2,1400.8 2018.0,1401.9 2020.8,1401.9 2023.6,1402.5 2027.6,1402.5 2030.4,1403.6 2037.2,1403.6 2041.1,1403.6 2043.4" style="fill:none;stroke:#ffffff;stroke-width:2"/>
<polyline points="1390.6 2016.3,1405.8 2016.3,1412.6 2016.9,1417.7 2016.9,1419.4 2017.4,1420.5 2017.4,1421.6 2018.0" style="fill:none;stroke:#ffffff;stroke-width:2"/>
<polyline points="1443.1 2037.2,1442.5 2046.2,1443.1 2055.8,1443.7 2058.1,1444.2 2059.2" style="fill:none;stroke:#ffffff;stroke-width:2"/>
<polyline points="1444.2 2016.9,1447.6 2017.4,1443.7 2016.3,1444.2 2021.9,1444.2 2020.8" style="fill:none;stroke:#ffffff;stroke-width:2"/>
<polyline points="1462.3 1994.8,1463.4 2005.0,1464.0 2009.0,1464.0 2013.5,1465.1 2018.0,1465.7 2022.5,1466.8 2026.5,1466.8 2030.4,1467.4 2033.8,1467.4 2036.6,1468.5 2039.4,1468.5 2041.7,1469.1 2043.9,1469.6 2045.1" style="fill:none;stroke:#ffffff;stroke-width:2"/>
<polyline points="1484.3 1994.8,1486.6 2003.3,1487.1 2006.1,1487.1 2008.4,1488.3 2012.3,1488.8 2016.3,1489.9 2019.7,1490.5 2023.6,1490.5 2026.5,1491.6 2030.4,1492.8 2032.7,1492.8 2036.0,1493.3 2040.0,1493.9 2043.4,1493.9 2045.6,1494.5 2047.9,1494.5 2049.0" style="fill:none;stroke:#ffffff;stroke-width:2"/>
<polyline points="1591.0 2014.0,1584.8 2018.0,1585.9 2021.4,1590.4 2027.0,1595.5 2031.5,1602.8 2037.2,1606.2 2040.0,1609.1 2042.3,1610.7 2043.9,1613.0 2047.9,1609.6 2048.5,1604.5 2048.5,1593.2 2047.3,1588.7 2046.8,1585.3 2044.5,1582.0 2043.9,1579.7 2043.4,1578.0 2042.8" style="fill:none;stroke:#ffffff;stroke-width:2"/>
<polyline points="1633.3 2018.5,1631.6 2017.4,1629.4 2017.4,1622.6 2018.5,1620.9 2020.2,1618.1 2023.6,1617.0 2027.0,1617.0 2031.0,1618.6 2033.8,1620.3 2037.7,1622.0 2040.0,1625.4 2043.4,1627.7 2046.2,1632.8 2049.0,1636.1 2050.7,1640.7 2052.4,1644.1 2054.1,1647.4 2054.7,1650.3 2054.7,1655.3 2053.5,1655.9 2051.3,1656.5 2049.0" style="fill:none;stroke:#ffffff;stroke-width:2"/>
<polyline points="1658.7 2002.2,1658.7 2004.4,1659.3 2008.4,1660.4 2012.3,1661.0 2015.7,1662.1 2019.1,1663.2 2023.1,1663.8 2026.5,1664.9 2031.0,1665.5 2033.8,1666.1 2038.3,1667.2 2041.1,1667.2 2044.5,1667.8 2047.9,1668.3 2050.7,1668.9 2046.2,1670.0 2042.3,1671.1 2037.7,1672.3 2034.4,1673.4 2031.5,1675.1 2029.3,1676.8 2026.5,1678.5 2024.2,1680.2 2022.5,1681.3 2020.8,1684.1 2019.7,1686.4 2019.7,1688.6 2020.2,1690.9 2023.6,1692.6 2028.7,1693.2 2031.0,1694.3 2033.8,1694.9 2037.2,1695.4 2041.1,1695.4 2043.9,1696.5 2046.2,1696.5 2045.1" style="fill:none;stroke:#ffffff;stroke-width:2"/>
<polyline points="1709.5 2042.8,1721.9 2042.8,1725.3 2042.3,1729.3 2040.0,1732.7 2036.6,1732.7 2032.7,1731.5 2030.4,1731.0 2028.1,1727.0 2025.9,1725.3 2024.8,1722.5 2024.8,1720.8 2023.6,1718.0 2023.6,1714.0 2025.3,1711.8 2025.9,1709.5 2027.6,1708.4 2029.3,1706.1 2033.2,1705.6 2035.5,1705.6 2038.3,1707.3 2046.2,1707.8 2049.6,1710.1 2051.9,1715.2 2055.8,1717.4 2057.5,1720.8 2058.1,1723.6 2058.1,1733.2 2057.5,1735.5 2056.9,1737.8 2054.7,1740.0 2053.0" style="fill:none;stroke:#ffffff;stroke-width:2"/>
<polyline points="1758.6 2032.1,1756.9 2031.0,1749.6 2033.2,1748.5 2041.1,1748.5 2043.4,1749.0 2049.6,1750.7 2053.0,1752.4 2055.2,1754.1 2056.9,1756.4 2058.1,1758.6 2059.8,1762.0 2060.3,1766.5 2060.3,1772.8 2059.8,1775.0 2058.1,1778.4 2055.8" style="fill:none;stroke:#ffffff;stroke-width:2"/>
<polyline points="1764.8 1996.0,1764.8 1998.8,1766.0 2005.0,1766.5 2009.0,1766.5 2012.3,1767.7 2017.4,1769.4 2021.9,1770.5 2025.3,1771.1 2029.8,1772.8 2034.4,1773.9 2037.2,1775.6 2040.6,1776.7 2043.9,1777.3 2046.2,1779.0 2047.3" style="fill:none;stroke:#ffffff;stroke-width:2"/>
<polyline points="1790.2 2030.4,1791.4 2041.7,1792.5 2043.4,1793.6 2045.6,1795.3 2047.9,1797.0 2049.6,1801.5 2051.9,1804.9 2052.4,1808.3 2052.4,1811.1 2050.7,1812.8 2049.6,1814.0 2047.3,1815.7 2045.6,1816.8 2042.8,1817.3 2040.6,1817.3 2037.7,1818.5 2035.5,1818.5 2032.1,1817.9 2029.8,1817.9 2028.7" style="fill:none;stroke:#ffffff;stroke-width:2"/>
<polyline points="1823.6 1997.7,1824.7 2001.0,1825.2 2005.0,1826.4 2011.8,1827.5 2015.2,1827.5 2018.0,1828.1 2022.5,1829.2 2025.3,1829.2 2029.3,1829.8 2033.2,1830.3 2036.6,1831.5 2040.6,1832.0 2043.9,1832.6 2046.2,1833.7 2048.5,1834.3 2050.7,1835.4 2053.5" style="fill:none;stroke:#ffffff;stroke-width:2"/>
<polyline points="1860.8 2040.0,1865.3 2038.9,1867.6 2036.6,1868.7 2034.9,1870.4 2030.4,1869.3 2027.0,1867.0 2025.3,1864.2 2024.2,1860.8 2024.2,1858.6 2024.8,1855.7 2027.0,1854.0 2029.8,1853.5 2033.2,1853.5 2036.6,1854.0 2041.1,1855.2 2044.5,1856.3 2046.8,1859.1 2049.0,1860.8 2051.9,1863.1 2053.5,1865.3 2054.7,1867.6 2056.4,1869.8 2056.9,1872.7 2056.9,1876.1 2056.4,1877.2 2054.1,1877.7 2051.3,1877.7 2050.2" style="fill:none;stroke:#ffffff;stroke-width:2"/>
<polyline points="1880.0 2018.0,1877.2 2019.7,1876.1 2021.4,1874.4 2025.3,1873.2 2027.0,1872.7 2029.3,1872.1 2033.2,1872.1 2035.5,1872.7 2042.3,1874.4 2044.5,1874.9 2046.8,1877.2 2049.0,1878.9 2050.2,1881.1 2051.9,1884.5 2053.0,1888.5 2053.0,1891.9 2051.9,1894.7 2049.6,1895.8 2046.2,1896.4 2042.3,1896.4 2038.9" style="fill:none;stroke:#ffffff;stroke-width:2"/>
<polyline points="1881.7 1998.2,1884.0 2001.6,1884.5 2004.4,1885.6 2007.8,1886.2 2011.2,1886.8 2015.2,1887.9 2018.0,1889.6 2023.6,1890.7 2028.1,1891.3 2032.1,1893.0 2036.6,1894.1 2040.0,1895.8 2043.4,1898.1 2049.0,1899.8 2051.3,1901.5 2054.7,1902.6 2056.4" style="fill:none;stroke:#ffffff;stroke-width:2"/>
<polyline points="1928.5 2003.8,1930.7 1995.9,1935.8 1993.6,1938.6 1992.5,1944.3 1991.4,1947.6 1990.8,1951.6 1990.8,1966.3 1991.4,1969.1 1992.5,1973.0 1994.8,1974.7 1995.9,1975.3 1998.1,1976.4 2001.5,1976.4 2004.9,1975.9 2007.2,1973.0 2014.0,1971.9 2015.6,1967.4 2017.3,1965.1 2017.9,1961.2 2018.5,1957.8 2018.5,1956.1 2019.6,1953.3 2019.6,1951.6 2021.3,1951.0 2023.5,1952.7 2025.8,1954.4 2027.5,1955.0 2028.1" style="fill:none;stroke:#ffffff;stroke-width:2"/>
<polyline points="1954.4 2050.1,1957.8 2053.5,1961.8 2049.0,1958.4 2046.1,1953.9 2047.3,1952.7 2050.6,1952.7 2052.9,1953.9 2052.9" style="fill:none;stroke:#ffffff;stroke-width:2"/>
<polyline points="1235.9 2305.9,1238.3 2305.9,1355.7 2305.9,1408.9 2308.4,1425.9 2308.4,1482.7 2310.8,1499.7 2310.8,1580.8 2313.2,1594.1 2313.2,1643.7 2315.6,1657.0 2315.6,1688.4 2318.0,1706.6 2318.0,1735.6 2320.5,1750.2 2320.5,1778.0 2322.9,1792.5 2322.9,1821.5 2324.1,1837.3 2324.1,1943.8 2324.1,2051.4 2324.1,2063.5 2322.9,2074.4 2322.9,2115.6 2320.5,2124.0 2320.5,2139.8 2318.0,2148.2 2318.0,2161.6 2316.8,2171.2 2316.8,2195.4 2314.4,2201.5 2314.4,2245.0 2313.2,2248.7 2313.2,2291.0 2310.8,2295.9 2310.8,2340.6 2309.6,2344.3 2309.6,2385.4 2308.4,2387.8 2308.4,2424.1 2305.9,2421.7 2303.5,2419.3 2299.9,2416.9 2298.7,2410.8 2296.3,2407.2 2292.6,2403.6 2290.2,2402.3 2287.8,2398.7 2286.6,2395.1 2284.2,2392.7 2281.7,2389.0 2280.5,2386.6 2278.1,2389.0 2279.3,2392.7 2280.5,2398.7 2282.9,2401.1 2284.2,2404.8 2285.4,2407.2 2286.6,2412.0 2287.8,2414.4 2287.8,2418.1 2289.0,2420.5 2290.2,2424.1 2291.4,2427.8 2291.4,2431.4 2292.6,2429.0 2295.0,2427.8 2297.5,2425.3 2299.9,2424.1 2302.3,2421.7 2305.9,2419.3 2308.4,2418.1 2310.8,2414.4 2313.2,2412.0 2316.8,2408.4 2321.7,2406.0 2325.3,2404.8 2326.5" style="fill:none;stroke:#ffffff;stroke-width:2"/>
<polyline points="1369.7 2219.5,1359.5 2221.0,1353.8 2223.0,1351.8 2223.6,1350.2 2225.6,1349.2 2227.7,1349.2 2230.7,1350.8 2232.8,1354.9 2235.9,1358.4 2238.4,1363.1 2241.0,1368.7 2244.6,1372.8 2246.1,1379.5 2250.2,1385.1 2252.8,1390.8 2255.9,1393.9 2257.4,1397.4 2259.0,1399.0 2261.0,1400.0 2263.1,1398.5 2265.1,1395.4 2265.6,1392.8 2266.7,1389.8 2267.2,1385.1 2267.2,1363.6 2266.7,1361.5 2265.6,1358.4 2263.1" style="fill:none;stroke:#ffffff;stroke-width:2"/>
<polyline points="1399.5 2225.6,1399.0 2227.7,1399.0 2230.2,1398.0 2232.8,1398.0 2235.9,1399.0 2247.7,1399.5 2251.8,1402.1 2256.4,1403.6 2260.5,1407.2 2264.1,1412.8 2268.7,1416.9 2271.3,1420.5 2273.3,1424.1 2273.9,1426.7 2273.9,1431.8 2272.3,1434.4 2271.3,1434.9 2269.2,1435.9 2262.6,1435.9 2259.0,1435.4 2255.9,1433.9 2252.8,1433.4 2250.8" style="fill:none;stroke:#ffffff;stroke-width:2"/>
<polyline points="1448.3 2203.0,1450.3 2208.7,1450.8 2213.8,1452.9 2220.0,1454.4 2225.1,1455.4 2231.3,1457.5 2236.4,1459.0 2243.1,1461.1 2249.2,1462.6 2257.4,1463.6 2260.5,1464.7 2263.1,1465.2 2265.6,1464.7 2263.6,1464.2 2260.5,1463.1 2256.9,1462.1 2250.8,1462.1 2247.7,1462.6 2245.6,1463.6 2243.6,1466.2 2241.5,1468.8 2240.0,1472.9 2239.0,1477.0 2239.0,1479.0 2240.0,1483.7 2242.5,1485.2 2244.1,1487.3 2245.6,1488.3 2247.7,1489.3 2250.8,1489.3 2252.8,1488.8 2256.4,1487.3 2258.5,1484.7 2262.6,1482.1 2264.1,1478.0 2266.2,1476.0 2266.2,1472.9 2266.7,1470.3 2266.2,1467.8 2265.1,1467.2 2264.6" style="fill:none;stroke:#ffffff;stroke-width:2"/>
<polyline points="1519.6 2232.8,1515.5 2232.3,1512.9 2232.3,1506.2 2232.8,1504.2 2236.9,1505.2 2240.5,1506.2 2242.5,1508.8 2245.1,1511.4 2248.2,1514.4 2251.3,1519.1 2254.9,1523.7 2257.9,1527.3 2261.0,1532.9 2264.1,1536.5 2266.7,1539.6 2269.2,1541.6 2270.3,1543.2 2271.8,1543.7 2274.4,1541.6 2275.4,1539.6 2275.4,1521.1 2274.4,1519.1 2274.4,1515.5 2273.3,1513.4 2272.3" style="fill:none;stroke:#ffffff;stroke-width:2"/>
<polyline points="1613.0 2218.9,1613.5 2224.6,1613.5 2226.6,1614.0 2232.3,1614.0 2236.4,1615.0 2252.3,1615.0 2255.4,1615.0 2267.7" style="fill:none;stroke:#ffffff;stroke-width:2"/>
<polyline points="1589.4 2235.4,1603.2 2235.9,1605.8 2235.9,1610.9 2236.9,1614.0 2236.9,1624.3 2236.9" style="fill:none;stroke:#ffffff;stroke-width:2"/>
<polyline points="1642.7 2246.7,1636.6 2255.9,1639.1 2262.6,1645.3 2264.6,1651.5 2264.6,1653.5 2264.1,1656.1 2263.1,1658.6 2261.5,1659.7 2259.5,1659.7 2257.4,1658.6 2254.9,1657.1 2252.8,1655.6 2251.3,1653.0 2249.7,1650.9 2247.7,1648.9 2246.7,1647.4 2245.1,1644.3 2243.6,1642.2 2242.5" style="fill:none;stroke:#ffffff;stroke-width:2"/>
<polyline points="1728.5 2238.9,1718.6 2238.3,1715.5 2245.8,1719.8 2252.0,1722.9 2253.8,1726.6 2256.9,1731.0 2259.4,1734.7 2261.3,1739.1 2263.8,1742.8 2265.6,1746.5 2266.9,1747.7 2268.7,1750.2 2270.0,1748.4 2272.5,1745.3 2273.7,1742.8 2273.7,1725.4 2272.5,1722.3 2271.8,1721.7 2271.2" style="fill:none;stroke:#ffffff;stroke-width:2"/>
<polyline points="1752.7 2262.5,1762.0 2260.0,1764.5 2253.2,1762.0 2248.9,1758.3 2247.0,1752.7 2245.8,1750.2 2246.4,1747.7 2248.2,1745.9 2250.7,1743.4 2254.4,1742.8 2256.9,1742.8 2260.7,1743.4 2265.0,1744.6 2268.7,1747.1 2270.6,1749.0 2273.1,1752.7 2273.7,1755.2 2275.6,1758.9 2276.2,1762.0 2276.2,1771.3 2274.3,1773.8 2273.7,1775.1 2271.8,1776.9 2270.0,1779.4 2266.9,1779.4 2264.4,1780.0 2261.9,1780.0 2258.2,1780.7 2248.9,1781.3 2252.0,1781.9 2255.7,1781.9 2258.2,1783.1 2260.7,1783.1 2263.1,1783.8 2265.6,1784.4 2268.7,1785.0 2271.2,1786.2 2268.7,1787.5 2265.0,1788.7 2262.5,1790.6 2260.7,1792.5 2257.6,1794.9 2255.1,1799.3 2251.3,1801.8 2250.1,1804.9 2249.5,1807.4 2248.2,1810.5 2250.7,1811.7 2255.1,1812.3 2258.2,1813.6 2260.0,1813.6 2262.5,1815.4 2266.9,1816.0 2270.0,1816.0 2271.2" style="fill:none;stroke:#ffffff;stroke-width:2"/>
<polyline points="1845.9 2253.2,1837.2 2255.1,1835.9 2256.9,1833.4 2260.0,1832.8 2262.5,1832.2 2266.9,1832.2 2269.4,1833.4 2274.9,1836.5 2278.0,1839.6 2279.9,1842.1 2280.5,1845.9 2280.5,1851.4 2278.7,1853.9 2277.4,1856.4 2275.6,1858.3 2272.5,1862.0 2265.6,1863.9 2261.9,1863.9 2258.2,1862.0 2242.7,1860.8 2238.9,1858.9 2235.2,1857.0 2232.1,1855.8 2229.6,1855.2 2235.2,1856.4 2237.1,1856.4 2241.4,1857.0 2245.1,1857.0 2248.2,1858.3 2258.2,1858.3 2261.3,1858.9 2265.0,1859.5 2267.5,1860.8 2269.4,1863.2 2266.9,1863.9 2266.2" style="fill:none;stroke:#ffffff;stroke-width:2"/>
<polyline points="1948.3 2221.5,1948.9 2225.9,1950.2 2229.0,1952.7 2240.2,1953.3 2242.7,1953.9 2245.8,1953.9 2248.2,1955.1 2252.0,1955.1 2255.1,1955.8 2261.3,1955.8 2264.4,1956.4 2271.2,1955.8 2272.5" style="fill:none;stroke:#ffffff;stroke-width:2"/>
<polyline points="1920.4 2246.4,1924.7 2246.4,1963.8 2245.1,1968.2 2245.1,1971.9 2244.5,1975.0 2244.5,1977.5 2243.3,1980.6 2242.7,1981.2 2242.0" style="fill:none;stroke:#ffffff;stroke-width:2"/>
<polyline points="1985.6 2256.9,1984.3 2265.6,1991.1 2272.5,1994.9 2273.7,1998.6 2274.3,2002.3 2273.1,2003.6 2271.2,2003.6 2268.1,2002.9 2263.1,2001.7 2260.7,2000.5 2257.6,1998.0 2255.1,1995.5 2253.8,1992.4 2250.7,1988.7 2248.9,1986.2 2248.2" style="fill:none;stroke:#ffffff;stroke-width:2"/>
<polyline points="-665.5 1303.3,-662.9 1310.0,-661.5 1315.3,-660.2 1324.6,-658.9 1337.9,-658.9 1341.9,-657.5 1359.2,-657.5 1365.9,-654.9 1375.2,-654.9 1377.8,-654.9 1373.8" style="fill:none;stroke:#ffffff;stroke-width:2"/>
<polyline points="-664.2 1275.3,-661.5 1275.3,-646.9 1276.7,-642.9 1276.7,-636.2 1278.0,-632.2 1280.7,-628.3 1280.7,-625.6 1282.0,-622.9 1282.0,-618.9 1283.3,-616.3 1283.3,-618.9 1284.7,-622.9 1286.0" style="fill:none;stroke:#ffffff;stroke-width:2"/>
<polyline points="-668.2 1332.6,-665.5 1332.6,-658.9 1335.2,-656.2 1335.2,-638.9 1336.6,-632.2 1336.6,-617.6 1337.9,-613.6 1337.9,-607.0 1337.9" style="fill:none;stroke:#ffffff;stroke-width:2"/>
<polyline points="-589.7 1340.6,-588.3 1345.9,-587.0 1348.6,-587.0 1351.2,-585.7 1360.5,-585.7 1363.2,-584.3 1365.9,-584.3 1368.5,-583.0 1371.2,-583.0 1373.8,-583.0 1380.5" style="fill:none;stroke:#ffffff;stroke-width:2"/>
<polyline points="-587.0 1316.6,-587.0 1319.3,-587.0 1321.9,-587.0 1324.6,-587.0 1321.9,-587.0 1319.3,-587.0 1316.6" style="fill:none;stroke:#ffffff;stroke-width:2"/>
<polyline points="-568.4 1367.2,-568.4 1364.5,-567.0 1359.2,-565.7 1355.2,-564.4 1352.5,-561.7 1349.9,-560.4 1347.2,-559.0 1343.2,-556.4 1339.2,-552.4 1337.9,-549.7 1337.9,-536.4 1339.2,-532.4 1341.9,-529.8 1344.6,-525.8 1345.9,-525.8 1348.6,-524.4 1352.5" style="fill:none;stroke:#ffffff;stroke-width:2"/>
<polyline points="-511.1 1355.2,-508.5 1355.2,-500.5 1353.9,-497.8 1353.9,-495.2 1352.5,-489.8 1351.2,-487.2 1348.6,-485.8 1345.9,-485.8 1343.2,-491.2 1340.6,-495.2 1339.2,-497.8 1337.9,-500.5 1337.9,-507.1 1339.2,-509.8 1340.6,-516.4 1347.2,-517.8 1349.9,-517.8 1353.9,-516.4 1363.2,-512.5 1367.2,-508.5 1369.8,-505.8 1372.5,-503.1 1373.8,-500.5 1373.8,-495.2 1375.2,-492.5 1375.2,-484.5 1373.8,-481.8 1373.8,-477.8 1372.5,-476.5 1369.8,-473.9 1367.2,-472.5 1364.5" style="fill:none;stroke:#ffffff;stroke-width:2"/>
<polyline points="-453.9 1294.0,-453.9 1298.0,-451.2 1302.0,-451.2 1306.0,-449.9 1311.3,-448.6 1315.3,-448.6 1323.3,-447.2 1329.9,-447.2 1335.2,-444.6 1341.9,-444.6 1345.9,-443.2 1352.5,-443.2 1356.5,-441.9 1360.5,-441.9 1355.2,-440.6 1352.5,-437.9 1348.6,-436.6 1344.6,-435.3 1339.2,-433.9 1336.6,-431.3 1333.9,-425.9 1331.3,-421.9 1331.3,-416.6 1332.6,-414.0 1333.9,-404.6 1340.6,-402.0 1344.6,-398.0 1347.2,-395.3 1351.2,-391.3 1356.5,-391.3 1359.2,-394.0 1367.2,-398.0 1368.5,-400.7 1369.8,-404.6 1369.8,-410.0 1372.5,-412.6 1372.5,-425.9 1372.5" style="fill:none;stroke:#ffffff;stroke-width:2"/>
<polyline points="-358.1 1339.2,-364.7 1340.6,-372.7 1351.2,-374.0 1353.9,-375.4 1357.9,-376.7 1360.5,-376.7 1365.9,-378.0 1368.5,-378.0 1371.2,-376.7 1379.2,-374.0 1381.8,-370.0 1383.2,-366.0 1383.2,-363.4 1381.8,-362.1 1379.2,-358.1 1377.8,-355.4 1375.2,-348.7 1367.2,-346.1 1360.5,-346.1 1356.5,-348.7 1351.2,-350.1 1355.2,-350.1 1357.9,-348.7 1371.2,-348.7 1373.8,-347.4 1377.8,-343.4 1380.5,-340.8 1380.5,-335.4 1380.5" style="fill:none;stroke:#ffffff;stroke-width:2"/>
<polyline points="-298.2 1345.9,-310.1 1349.9,-308.8 1355.2,-302.2 1363.2,-298.2 1364.5,-295.5 1365.9,-291.5 1368.5,-288.8 1369.8,-286.2 1372.5,-283.5 1373.8,-280.9 1376.5,-280.9 1379.2,-284.9 1383.2,-290.2 1385.8,-294.2 1387.2,-296.8 1387.2,-306.1 1385.8,-308.8 1384.5,-308.8 1381.8,-306.1 1377.8" style="fill:none;stroke:#ffffff;stroke-width:2"/>
<polyline points="-268.9 1359.2,-263.6 1361.9,-256.9 1363.2,-254.2 1364.5,-251.6 1364.5,-238.3 1363.2,-235.6 1363.2,-232.9 1361.9,-232.9 1359.2,-234.3 1349.9,-238.3 1347.2,-246.3 1343.2,-250.2 1343.2,-254.2 1344.6,-259.6 1347.2,-262.2 1349.9,-264.9 1355.2,-267.6 1359.2,-267.6 1361.9,-266.2 1369.8,-264.9 1372.5,-262.2 1375.2,-259.6 1376.5,-251.6 1381.8,-248.9 1381.8,-243.6 1383.2,-240.9 1383.2,-235.6 1381.8,-232.9 1380.5,-230.3 1377.8" style="fill:none;stroke:#ffffff;stroke-width:2"/>
<polyline points="1118.1 2433.8,993.2 2433.8,875.3 2431.5,856.4 2431.5,719.6 2431.5,618.3 2433.8,604.1 2433.8,533.4 2436.2,523.9 2436.2,417.8 2440.9,403.7 2440.9,302.3 2440.9,179.7 2436.2,163.2 2436.2,94.8 2431.5,83.0 2431.5,5.2 2429.1,-6.6 2429.1,-49.0 2426.8,-53.8 2426.8,-89.1 2424.4,-93.8 2424.4,-119.8 2422.1,-126.9 2422.1,-157.5 2419.7,-164.6 2419.7,-188.2 2417.3,-195.2 2417.3,-225.9 2415.0,-230.6 2415.0,-268.3 2410.3,-273.0 2410.3,-289.6 2407.9,-294.3 2407.9,-303.7 2405.6,-308.4 2405.6,-313.1 2403.2,-317.8 2403.2,-317.8 2407.9,-315.5 2410.3,-310.8 2417.3,-308.4 2424.4,-301.3 2426.8,-299.0 2433.8,-294.3 2438.6,-280.1 2450.4,-275.4 2457.4,-273.0 2459.8,-266.0 2462.1,-268.3 2459.8,-275.4 2450.4,-277.8 2445.6,-282.5 2438.6,-284.8 2433.8,-289.6 2422.1,-291.9 2419.7,-303.7 2405.6,-303.7 2400.8,-299.0 2398.5,-277.8 2386.7,-268.3 2384.3,-263.6 2382.0,-254.2 2379.6,-251.8 2377.3" style="fill:none;stroke:#ffffff;stroke-width:2"/>
<polyline points="92.4 2489.0,92.4 2494.8,93.2 2498.9,93.2 2505.5,94.8 2517.1,94.8 2522.9,95.7 2532.0,95.7 2535.3,97.3 2539.4,97.3 2542.7,98.1 2547.7,98.1 2551.0" style="fill:none;stroke:#ffffff;stroke-width:2"/>
<polyline points="90.7 2476.6,98.1 2478.3,101.5 2479.1,105.6 2480.7,117.2 2484.9,121.3 2485.7,123.8 2488.2,127.1 2489.0,128.7 2491.5,128.7 2494.8,127.1 2496.4,124.6 2500.6,120.5 2503.1,117.2 2505.5,111.4 2508.0,106.4 2510.5,96.5 2513.8,92.4 2515.5,88.2 2515.5,80.8 2515.5" style="fill:none;stroke:#ffffff;stroke-width:2"/>
<polyline points="135.3 2490.7,135.3 2493.1,136.2 2495.6,138.6 2499.7,139.5 2502.2,141.1 2504.7,143.6 2507.2,146.1 2510.5,151.0 2513.0,153.5 2515.5,156.8 2516.3,161.8 2517.9,165.9 2517.9,177.5 2516.3,179.1 2514.6,184.9 2506.4,184.9 2503.9,184.1 2499.7,182.4 2495.6,180.0 2494.8,176.7 2493.1,174.2 2491.5" style="fill:none;stroke:#ffffff;stroke-width:2"/>
<polyline points="212.2 2484.0,206.4 2485.7,201.5 2488.2,199.0 2497.3,200.6 2498.9,201.5 2501.4,204.8 2503.9,208.1 2507.2,213.8 2509.7,225.4 2515.5,231.2 2517.1,237.0 2520.4,241.9 2522.9,245.3 2523.7,246.9 2525.4,244.4 2527.8,240.3 2527.8,214.7 2526.2,211.4 2525.4,208.9 2524.5,205.6 2522.1" style="fill:none;stroke:#ffffff;stroke-width:2"/>
<polyline points="246.1 2481.6,247.7 2485.7,247.7 2489.8,248.6 2494.0,249.4 2498.9,249.4 2502.2,251.0 2506.4,251.0 2509.7,251.9 2514.6,251.9 2517.1,252.7 2520.4,252.7 2517.1,253.5 2513.8,256.0 2509.7,257.6 2507.2,261.8 2503.1,263.4 2500.6,266.7 2499.7,269.2 2498.9,271.7 2498.9,274.2 2497.3,277.5 2497.3,280.0 2498.1,281.6 2499.7,284.1 2503.9,284.9 2507.2,286.6 2512.1,288.2 2516.3,288.2 2519.6,289.1 2526.2,289.1 2527.8" style="fill:none;stroke:#ffffff;stroke-width:2"/>
<polyline points="364.3 2532.8,364.3 2530.3,365.1 2509.7,366.7 2506.4,370.0 2504.7,372.5 2503.9,375.8 2503.9,380.8 2504.7,382.4 2506.4,388.2 2513.0,389.1 2515.5,391.5 2519.6,392.4 2522.9,393.2 2525.4,393.2 2529.5,394.0 2536.1,395.7 2534.5" style="fill:none;stroke:#ffffff;stroke-width:2"/>
<polyline points="414.7 2513.8,409.7 2522.1,411.4 2530.3,413.8 2532.8,423.8 2536.1,427.1 2537.8,429.5 2537.8,437.0 2536.1,439.5 2533.6,440.3 2531.2,440.3 2527.0,439.5 2523.7,437.0 2521.2,435.3 2517.9,431.2 2515.5,427.9 2513.0,424.6 2512.1,420.5 2509.7,415.5 2508.8,413.0 2508.8,408.9 2509.7,408.1 2510.5" style="fill:none;stroke:#ffffff;stroke-width:2"/>
<polyline points="467.6 2483.2,469.2 2487.4,470.0 2492.3,472.5 2500.6,474.2 2503.9,474.2 2506.4,475.0 2509.7,475.8 2514.6,476.7 2517.9,478.3 2519.6,479.1 2522.9,480.0 2525.4,480.0 2527.0" style="fill:none;stroke:#ffffff;stroke-width:2"/>
<polyline points="458.5 2503.9,478.3 2503.9,484.1 2505.5,491.5 2505.5,499.0 2506.4" style="fill:none;stroke:#ffffff;stroke-width:2"/>
<polyline points="521.3 2517.9,522.1 2524.5,522.9 2529.5,522.9 2531.2,522.9 2532.8,522.9 2531.2" style="fill:none;stroke:#ffffff;stroke-width:2"/>
<polyline points="507.2 2497.3,513.8 2502.2,513.8 2500.6,513.0 2498.9,512.2 2498.1,511.4 2496.4" style="fill:none;stroke:#ffffff;stroke-width:2"/>
<polyline points="559.3 2533.6,556.8 2526.2,553.5 2518.8,552.7 2513.8,550.2 2510.5,549.4 2505.5,548.6 2496.4,548.6 2492.3,549.4 2482.4,551.9 2479.1,554.3 2476.6,558.5 2475.0,561.8 2475.0,564.3 2474.1,568.4 2474.1,574.2 2475.0,577.5 2477.4,578.3 2479.9" style="fill:none;stroke:#ffffff;stroke-width:2"/>
<polyline points="535.3 2507.2,541.9 2508.0,544.4 2508.0,577.5 2508.0,579.1 2508.0" style="fill:none;stroke:#ffffff;stroke-width:2"/>
<polyline points="595.7 2528.7,595.7 2530.2,594.9 2529.4" style="fill:none;stroke:#ffffff;stroke-width:2"/>
<polyline points="110.7 1708.2,107.3 1708.9,102.5 1713.0,100.5 1719.1,100.5 1721.1,101.2 1725.2,103.2 1728.0,105.9 1731.4,109.3 1734.1,112.1 1736.2,115.5 1736.9,120.3 1738.9,125.7 1740.3,129.8 1741.0,133.9 1741.0,145.5 1740.3,148.3 1738.9,151.7 1734.8,152.4 1730.7,152.4 1728.7,150.3 1722.5,147.6 1718.4,145.5 1715.7,142.1 1712.3,137.4 1708.9,133.3 1706.8,127.8 1704.8,123.0 1702.7,119.6 1700.7,116.9 1700.0,112.8 1700.0" style="fill:none;stroke:#ffffff;stroke-width:2"/>
<polyline points="159.2 1710.2,158.5 1712.3,158.5 1723.9,159.2 1734.8,159.2 1737.5,158.5 1735.5,157.2 1732.1,156.5 1730.0,155.1 1724.6,155.1 1721.1,154.4 1718.4,154.4 1715.0,155.1 1706.1,155.8 1704.1,156.5 1701.3,159.2 1699.3,163.3 1697.9,166.0 1697.9,181.1 1700.0,183.8 1700.7,186.5 1702.7,188.6 1704.8,189.9 1706.8,189.9 1709.5,185.8 1710.2,183.8 1710.2,164.7 1710.9,165.4 1713.6,166.7 1715.7,170.1 1717.7,173.6 1721.1,176.3 1722.5,181.1 1725.9,184.5 1728.0,187.9 1730.7,190.6 1732.8,192.7 1734.8,195.4 1736.9,198.1 1740.3,196.8 1738.9" style="fill:none;stroke:#ffffff;stroke-width:2"/>
<polyline points="258.9 1695.2,266.4 1700.7,267.1 1701.3,269.2 1702.7,269.9 1703.4,270.5 1704.1" style="fill:none;stroke:#ffffff;stroke-width:2"/>
<polyline points="256.9 1721.8,263.0 1719.8,267.1 1719.1" style="fill:none;stroke:#ffffff;stroke-width:2"/>
<polyline points="271.2 1736.9,264.4 1738.9,261.0 1739.6,259.6 1740.3,258.9 1741.0,257.6 1741.6,256.9 1742.3" style="fill:none;stroke:#ffffff;stroke-width:2"/>
<polyline points="278.7 1751.2,277.4 1756.7,274.6 1760.1,274.0 1761.4,272.6 1762.1,271.9 1762.8,271.2 1763.5" style="fill:none;stroke:#ffffff;stroke-width:2"/>
<polyline points="304.7 1713.6,298.5 1714.3,295.1 1718.4,296.5 1723.2,298.5 1724.6,300.6 1726.6,302.0 1728.7,304.7 1729.3,306.7 1730.7,309.5 1731.4,312.2 1733.4,314.3 1734.1,317.7 1735.5,319.0 1738.2,315.6 1739.6,310.8 1741.0,308.1 1742.3,305.4 1743.0,302.6 1743.0,301.3 1743.0" style="fill:none;stroke:#ffffff;stroke-width:2"/>
<polyline points="331.3 1718.4,329.3 1719.1,327.2 1721.8,324.5 1726.6,324.5 1728.7,325.2 1733.4,327.9 1735.5,331.3 1738.2,333.4 1738.2,342.3 1736.9,344.3 1735.5,345.7 1733.4,346.4 1730.7,348.4 1726.6,348.4 1723.9,347.7 1721.1,346.4 1723.9,346.4 1725.9,347.0 1732.1,347.7 1735.5,347.7 1738.9,349.1 1742.3,349.8 1747.8,351.1 1752.6,351.8 1756.7,353.2 1760.8,353.2 1764.9,352.5 1776.5,349.8 1777.2,346.4 1777.2,344.3 1776.5,341.6 1775.8,338.8 1773.7,334.7 1770.3,332.7 1768.3,330.0 1766.2,329.3 1764.2,330.6 1761.4,332.7 1761.4,335.4 1760.8,337.5 1760.8,341.6 1760.1,346.4 1760.1,349.8 1758.7,355.2 1758.7,360.0 1757.3,364.8 1757.3,368.9 1756.7,372.3 1756.7,375.7 1756.0,377.1 1755.3" style="fill:none;stroke:#ffffff;stroke-width:2"/>
<polyline points="408.5 1718.4,405.8 1719.8,401.0 1725.2,401.0 1732.8,402.4 1735.5,407.8 1741.0,411.9 1741.6,417.4 1743.7,419.4 1743.7,422.2 1744.4,424.2 1744.4,427.6 1743.7,429.7 1742.3,431.7 1740.3,431.7 1737.5,431.7 1736.2" style="fill:none;stroke:#ffffff;stroke-width:2"/>
<polyline points="431.7 1717.0,431.7 1720.5,432.4 1724.6,433.8 1728.0,434.5 1731.4,434.5 1734.8,435.8 1736.9,436.5 1739.6,437.9 1743.7,437.9 1741.6,438.6 1739.6,439.2 1736.9,439.2 1734.1,440.6 1730.7,442.0 1728.7,444.0 1725.2,446.8 1723.9,449.5 1723.9,452.2 1725.9,453.6 1728.0,457.0 1731.4,458.4 1734.1,459.1 1736.2,460.4 1738.2,461.1 1740.3,462.5 1743.7,462.5 1745.7,462.5 1747.1" style="fill:none;stroke:#ffffff;stroke-width:2"/>
<polyline points="429.0 1689.7,429.7 1698.6,429.7 1701.3,431.0 1707.5,431.7 1710.9,431.7 1714.3,432.4 1717.0,433.8 1719.8,434.5 1721.8,435.1 1725.2" style="fill:none;stroke:#ffffff;stroke-width:2"/>
<polyline points="489.8 1723.2,487.7 1723.9,485.0 1725.9,484.3 1728.0,483.0 1730.7,481.6 1732.8,480.9 1734.8,479.5 1738.2,478.9 1740.3,478.9 1743.7,480.9 1745.7,483.0 1746.4,485.7 1745.7,488.4 1743.7,490.5 1742.3,492.5 1740.3,495.3 1736.9,495.9 1734.8,497.3 1729.3,497.3 1726.6,496.6 1724.6,494.6 1723.9,493.9 1726.6,493.9 1730.0,494.6 1738.9,495.3 1741.6,496.6 1744.4,498.7 1747.8,500.7 1749.8,503.4 1749.8,504.1 1747.8,504.1 1745.7,503.4 1741.0,502.8 1738.9,502.1 1735.5,502.1 1732.8,504.1 1732.1,506.2 1732.1,508.2 1731.4,511.0 1729.3,513.7 1729.3,514.4 1731.4,514.4 1733.4,515.1 1736.2,515.1 1738.2,515.7 1746.4,515.7 1749.2,516.4 1747.1,516.4 1744.4,517.1 1739.6,517.1 1737.5,518.5 1733.4,519.8 1728.0,521.2 1725.9,524.6 1724.6,526.7 1725.9,529.4 1728.7,530.8 1732.1,532.8 1735.5,533.5 1738.2,533.5 1741.0,534.2 1746.4,534.9 1747.1" style="fill:none;stroke:#ffffff;stroke-width:2"/>
<polyline points="559.5 1730.7,554.0 1734.8,552.6 1738.2,552.6 1740.3,553.3 1747.1,554.0 1749.2,556.7 1752.6,558.8 1754.6,561.5 1755.3,564.2 1755.3,573.1 1753.2,575.2 1751.2,577.2 1747.8,577.2 1745.7" style="fill:none;stroke:#ffffff;stroke-width:2"/>
<polyline points="573.8 1715.0,574.5 1719.8,575.8 1723.9,577.9 1728.0,578.6 1731.4,579.3 1735.5,580.6 1741.0,582.7 1747.1,583.4 1749.8,584.0 1753.9,585.4 1756.0,585.4 1753.2,586.1 1751.2,586.1 1749.2,588.8 1745.1,589.5 1741.6,590.2 1739.6,592.9 1737.5,595.0 1736.2,597.7 1736.2,599.8 1737.5,602.5 1741.0,603.8 1744.4,605.9 1749.8,605.9 1751.9,606.6 1753.9,607.3 1752.6" style="fill:none;stroke:#ffffff;stroke-width:2"/>
<polyline points="620.9 1752.6,634.6 1750.5,637.3 1749.8,639.4 1749.2,640.7 1747.1,642.8 1743.7,642.8 1741.0,640.7 1736.2,636.6 1733.4,634.6 1732.8,631.9 1732.1,629.1 1732.1,623.7 1732.8,621.6 1733.4,620.2 1735.5,618.2 1738.9,618.2 1741.0,618.9 1747.8,619.6 1749.8,622.3 1753.2,623.7 1756.0,627.1 1758.7,631.2 1759.4,633.9 1760.1,637.3 1760.1,647.6 1759.4,651.7 1757.3,655.1 1756.0" style="fill:none;stroke:#ffffff;stroke-width:2"/>
<polyline points="662.6 1741.6,657.8 1739.6,654.4 1741.6,654.4 1749.2,655.8 1751.2,658.5 1754.6,661.2 1755.3,664.0 1757.3,666.0 1757.3,669.4 1756.0,672.8 1753.2,674.2 1750.5,674.9 1748.5,675.6 1745.1,676.9 1741.6,676.9 1738.9,676.2 1725.2,674.9 1722.5,674.2 1719.8,672.2 1714.3,671.5 1712.3,671.5 1715.7,672.2 1717.7,672.2 1719.8,672.8 1722.5,672.8 1725.2,674.2 1728.7,674.9 1732.8,675.6 1734.8,676.9 1736.9,677.6 1741.0,678.3 1743.0,679.7 1745.1,679.7 1747.1,680.3 1749.2,681.7 1751.2,683.8 1752.6,685.8 1753.2,688.5 1753.2,691.3 1751.2" style="fill:none;stroke:#ffffff;stroke-width:2"/>
<polyline points="708.4 1711.6,713.1 1708.2,716.5 1704.8,717.9 1704.1,718.6 1703.4,719.3 1702.7,720.0 1702.0" style="fill:none;stroke:#ffffff;stroke-width:2"/>
<polyline points="721.3 1730.7,730.9 1729.3,732.3 1729.3,733.6 1729.3,735.0 1729.3,735.7 1730.0,737.0 1730.0" style="fill:none;stroke:#ffffff;stroke-width:2"/>
<polyline points="725.4 1746.4,732.3 1751.9,732.3 1753.2" style="fill:none;stroke:#ffffff;stroke-width:2"/>
<polyline points="718.6 1770.3,724.1 1772.4,727.5 1773.7,728.2 1774.4,728.8 1775.1" style="fill:none;stroke:#ffffff;stroke-width:2"/>
<polyline points="185.8 1818.8,174.9 1822.2,174.2 1824.3,170.8 1829.7,170.8 1834.5,174.2 1835.9,177.6 1835.9,184.5 1835.2,187.2 1833.8,189.9 1833.2,192.7 1831.8,195.4 1829.7,197.5 1827.0,198.8 1825.0,200.2 1822.2,200.2 1818.8,200.9 1816.1,200.9 1814.0,200.2 1809.9,199.5 1807.9,197.5 1804.5,195.4 1802.4,194.7 1805.2,194.7 1807.2,195.4 1820.2,195.4 1822.9,197.5 1825.6,198.1 1828.4,200.2 1833.2,202.9 1835.2,205.7 1835.9,209.1 1833.8,209.8 1831.8,210.4 1828.4" style="fill:none;stroke:#ffffff;stroke-width:2"/>
<polyline points="209.8 1794.2,210.4 1796.3,210.4 1798.3,211.1 1800.4,212.5 1803.1,213.2 1805.8,213.2 1808.6,213.8 1812.0,213.8 1814.7,215.2 1818.1,215.2 1821.5,215.9 1827.0,215.9 1829.7,216.6 1832.5,219.3 1837.3,221.4 1838.6,223.4 1840.7,226.1 1841.4,230.9 1843.4,233.0 1843.4,240.5 1842.7,241.2 1839.3,239.8 1835.9" style="fill:none;stroke:#ffffff;stroke-width:2"/>
<polyline points="208.4 1816.1,213.8 1816.1,220.7 1817.5,226.8 1817.5,254.1 1815.4,252.8 1815.4" style="fill:none;stroke:#ffffff;stroke-width:2"/>
<polyline points="121.6 1313.4,121.6 1314.9,120.9 1314.1" style="fill:none;stroke:#ffffff;stroke-width:2"/>
<polyline points="310.8 1780.6,310.8 1783.3,310.2 1785.4,310.2 1787.4,308.8 1797.0,308.8 1801.7,310.2 1824.3,310.2 1827.0,310.8 1829.7,311.5 1831.8,311.5 1834.5,314.3 1837.9,315.6 1840.0,317.7 1842.0,319.7 1842.7,323.8 1843.4,326.5 1843.4,331.3 1842.7,334.1 1841.4,334.1 1838.6,334.1 1837.3" style="fill:none;stroke:#5784ff;stroke-width:2"/>
<polyline points="297.2 1803.1,302.6 1805.2,305.4 1805.2,308.1 1805.8,310.8 1805.8,312.9 1807.2,315.6 1807.2,327.9 1807.2" style="fill:none;stroke:#5784ff;stroke-width:2"/>
</svg>